<svg xmlns="http://www.w3.org/2000/svg" viewBox="0 -0.5 512 512" shape-rendering="crispEdges">
<metadata>Made with Pixels to Svg https://codepen.io/shshaw/pen/XbxvNj</metadata>
<path stroke="#7a3045" d="M192 32h128M192 33h128M192 34h128M192 35h128M192 36h128M192 37h128M192 38h128M192 39h128M192 40h128M192 41h128M192 42h128M192 43h128M192 44h128M192 45h128M192 46h128M192 47h128M192 48h128M192 49h128M192 50h128M192 51h128M192 52h128M192 53h128M192 54h128M192 55h128M192 56h128M192 57h128M192 58h128M192 59h128M192 60h128M192 61h128M192 62h128M192 63h128M128 64h64M320 64h64M128 65h64M320 65h64M128 66h64M320 66h64M128 67h64M320 67h64M128 68h64M320 68h64M128 69h64M320 69h64M128 70h64M320 70h64M128 71h64M320 71h64M128 72h64M320 72h64M128 73h64M320 73h64M128 74h64M320 74h64M128 75h64M320 75h64M128 76h64M320 76h64M128 77h64M320 77h64M128 78h64M320 78h64M128 79h64M320 79h64M128 80h64M320 80h64M128 81h64M320 81h64M128 82h64M320 82h64M128 83h64M320 83h64M128 84h64M320 84h64M128 85h64M320 85h64M128 86h64M320 86h64M128 87h64M320 87h64M128 88h64M320 88h64M128 89h64M320 89h64M128 90h64M320 90h64M128 91h64M320 91h64M128 92h64M320 92h64M128 93h64M320 93h64M128 94h64M320 94h64M128 95h64M320 95h64M96 96h32M384 96h32M96 97h32M384 97h32M96 98h32M384 98h32M96 99h32M384 99h32M96 100h32M384 100h32M96 101h32M384 101h32M96 102h32M384 102h32M96 103h32M384 103h32M96 104h32M384 104h32M96 105h32M384 105h32M96 106h32M384 106h32M96 107h32M384 107h32M96 108h32M384 108h32M96 109h32M384 109h32M96 110h32M384 110h32M96 111h32M384 111h32M96 112h32M384 112h32M96 113h32M384 113h32M96 114h32M384 114h32M96 115h32M384 115h32M96 116h32M384 116h32M96 117h32M384 117h32M96 118h32M384 118h32M96 119h32M384 119h32M96 120h32M384 120h32M96 121h32M384 121h32M96 122h32M384 122h32M96 123h32M384 123h32M96 124h32M384 124h32M96 125h32M384 125h32M96 126h32M384 126h32M96 127h32M384 127h32M64 128h32M416 128h32M64 129h32M416 129h32M64 130h32M416 130h32M64 131h32M416 131h32M64 132h32M416 132h32M64 133h32M416 133h32M64 134h32M416 134h32M64 135h32M416 135h32M64 136h32M416 136h32M64 137h32M416 137h32M64 138h32M416 138h32M64 139h32M416 139h32M64 140h32M416 140h32M64 141h32M416 141h32M64 142h32M416 142h32M64 143h32M416 143h32M64 144h32M416 144h32M64 145h32M416 145h32M64 146h32M416 146h32M64 147h32M416 147h32M64 148h32M416 148h32M64 149h32M416 149h32M64 150h32M416 150h32M64 151h32M416 151h32M64 152h32M416 152h32M64 153h32M416 153h32M64 154h32M416 154h32M64 155h32M416 155h32M64 156h32M416 156h32M64 157h32M416 157h32M64 158h32M416 158h32M64 159h32M416 159h32M64 160h32M416 160h32M64 161h32M416 161h32M64 162h32M416 162h32M64 163h32M416 163h32M64 164h32M416 164h32M64 165h32M416 165h32M64 166h32M416 166h32M64 167h32M416 167h32M64 168h32M416 168h32M64 169h32M416 169h32M64 170h32M416 170h32M64 171h32M416 171h32M64 172h32M416 172h32M64 173h32M416 173h32M64 174h32M416 174h32M64 175h32M416 175h32M64 176h32M416 176h32M64 177h32M416 177h32M64 178h32M416 178h32M64 179h32M416 179h32M64 180h32M416 180h32M64 181h32M416 181h32M64 182h32M416 182h32M64 183h32M416 183h32M64 184h32M416 184h32M64 185h32M416 185h32M64 186h32M416 186h32M64 187h32M416 187h32M64 188h32M416 188h32M64 189h32M416 189h32M64 190h32M416 190h32M64 191h32M416 191h32M32 192h32M224 192h32M352 192h32M448 192h32M32 193h32M224 193h32M352 193h32M448 193h32M32 194h32M224 194h32M352 194h32M448 194h32M32 195h32M224 195h32M352 195h32M448 195h32M32 196h32M224 196h32M352 196h32M448 196h32M32 197h32M224 197h32M352 197h32M448 197h32M32 198h32M224 198h32M352 198h32M448 198h32M32 199h32M224 199h32M352 199h32M448 199h32M32 200h32M224 200h32M352 200h32M448 200h32M32 201h32M224 201h32M352 201h32M448 201h32M32 202h32M224 202h32M352 202h32M448 202h32M32 203h32M224 203h32M352 203h32M448 203h32M32 204h32M224 204h32M352 204h32M448 204h32M32 205h32M224 205h32M352 205h32M448 205h32M32 206h32M224 206h32M352 206h32M448 206h32M32 207h32M224 207h32M352 207h32M448 207h32M32 208h32M224 208h32M352 208h32M448 208h32M32 209h32M224 209h32M352 209h32M448 209h32M32 210h32M224 210h32M352 210h32M448 210h32M32 211h32M224 211h32M352 211h32M448 211h32M32 212h32M224 212h32M352 212h32M448 212h32M32 213h32M224 213h32M352 213h32M448 213h32M32 214h32M224 214h32M352 214h32M448 214h32M32 215h32M224 215h32M352 215h32M448 215h32M32 216h32M224 216h32M352 216h32M448 216h32M32 217h32M224 217h32M352 217h32M448 217h32M32 218h32M224 218h32M352 218h32M448 218h32M32 219h32M224 219h32M352 219h32M448 219h32M32 220h32M224 220h32M352 220h32M448 220h32M32 221h32M224 221h32M352 221h32M448 221h32M32 222h32M224 222h32M352 222h32M448 222h32M32 223h32M224 223h32M352 223h32M448 223h32M32 224h32M448 224h32M32 225h32M448 225h32M32 226h32M448 226h32M32 227h32M448 227h32M32 228h32M448 228h32M32 229h32M448 229h32M32 230h32M448 230h32M32 231h32M448 231h32M32 232h32M448 232h32M32 233h32M448 233h32M32 234h32M448 234h32M32 235h32M448 235h32M32 236h32M448 236h32M32 237h32M448 237h32M32 238h32M448 238h32M32 239h32M448 239h32M32 240h32M448 240h32M32 241h32M448 241h32M32 242h32M448 242h32M32 243h32M448 243h32M32 244h32M448 244h32M32 245h32M448 245h32M32 246h32M448 246h32M32 247h32M448 247h32M32 248h32M448 248h32M32 249h32M448 249h32M32 250h32M448 250h32M32 251h32M448 251h32M32 252h32M448 252h32M32 253h32M448 253h32M32 254h32M448 254h32M32 255h32M448 255h32M32 256h32M448 256h32M32 257h32M448 257h32M32 258h32M448 258h32M32 259h32M448 259h32M32 260h32M448 260h32M32 261h32M448 261h32M32 262h32M448 262h32M32 263h32M448 263h32M32 264h32M448 264h32M32 265h32M448 265h32M32 266h32M448 266h32M32 267h32M448 267h32M32 268h32M448 268h32M32 269h32M448 269h32M32 270h32M448 270h32M32 271h32M448 271h32M32 272h32M448 272h32M32 273h32M448 273h32M32 274h32M448 274h32M32 275h32M448 275h32M32 276h32M448 276h32M32 277h32M448 277h32M32 278h32M448 278h32M32 279h32M448 279h32M32 280h32M448 280h32M32 281h32M448 281h32M32 282h32M448 282h32M32 283h32M448 283h32M32 284h32M448 284h32M32 285h32M448 285h32M32 286h32M448 286h32M32 287h32M448 287h32M32 288h32M288 288h32M448 288h32M32 289h32M288 289h32M448 289h32M32 290h32M288 290h32M448 290h32M32 291h32M288 291h32M448 291h32M32 292h32M288 292h32M448 292h32M32 293h32M288 293h32M448 293h32M32 294h32M288 294h32M448 294h32M32 295h32M288 295h32M448 295h32M32 296h32M288 296h32M448 296h32M32 297h32M288 297h32M448 297h32M32 298h32M288 298h32M448 298h32M32 299h32M288 299h32M448 299h32M32 300h32M288 300h32M448 300h32M32 301h32M288 301h32M448 301h32M32 302h32M288 302h32M448 302h32M32 303h32M288 303h32M448 303h32M32 304h32M288 304h32M448 304h32M32 305h32M288 305h32M448 305h32M32 306h32M288 306h32M448 306h32M32 307h32M288 307h32M448 307h32M32 308h32M288 308h32M448 308h32M32 309h32M288 309h32M448 309h32M32 310h32M288 310h32M448 310h32M32 311h32M288 311h32M448 311h32M32 312h32M288 312h32M448 312h32M32 313h32M288 313h32M448 313h32M32 314h32M288 314h32M448 314h32M32 315h32M288 315h32M448 315h32M32 316h32M288 316h32M448 316h32M32 317h32M288 317h32M448 317h32M32 318h32M288 318h32M448 318h32M32 319h32M288 319h32M448 319h32M64 320h32M416 320h32M64 321h32M416 321h32M64 322h32M416 322h32M64 323h32M416 323h32M64 324h32M416 324h32M64 325h32M416 325h32M64 326h32M416 326h32M64 327h32M416 327h32M64 328h32M416 328h32M64 329h32M416 329h32M64 330h32M416 330h32M64 331h32M416 331h32M64 332h32M416 332h32M64 333h32M416 333h32M64 334h32M416 334h32M64 335h32M416 335h32M64 336h32M416 336h32M64 337h32M416 337h32M64 338h32M416 338h32M64 339h32M416 339h32M64 340h32M416 340h32M64 341h32M416 341h32M64 342h32M416 342h32M64 343h32M416 343h32M64 344h32M416 344h32M64 345h32M416 345h32M64 346h32M416 346h32M64 347h32M416 347h32M64 348h32M416 348h32M64 349h32M416 349h32M64 350h32M416 350h32M64 351h32M416 351h32M64 352h32M416 352h32M64 353h32M416 353h32M64 354h32M416 354h32M64 355h32M416 355h32M64 356h32M416 356h32M64 357h32M416 357h32M64 358h32M416 358h32M64 359h32M416 359h32M64 360h32M416 360h32M64 361h32M416 361h32M64 362h32M416 362h32M64 363h32M416 363h32M64 364h32M416 364h32M64 365h32M416 365h32M64 366h32M416 366h32M64 367h32M416 367h32M64 368h32M416 368h32M64 369h32M416 369h32M64 370h32M416 370h32M64 371h32M416 371h32M64 372h32M416 372h32M64 373h32M416 373h32M64 374h32M416 374h32M64 375h32M416 375h32M64 376h32M416 376h32M64 377h32M416 377h32M64 378h32M416 378h32M64 379h32M416 379h32M64 380h32M416 380h32M64 381h32M416 381h32M64 382h32M416 382h32M64 383h32M416 383h32M96 384h32M384 384h32M96 385h32M384 385h32M96 386h32M384 386h32M96 387h32M384 387h32M96 388h32M384 388h32M96 389h32M384 389h32M96 390h32M384 390h32M96 391h32M384 391h32M96 392h32M384 392h32M96 393h32M384 393h32M96 394h32M384 394h32M96 395h32M384 395h32M96 396h32M384 396h32M96 397h32M384 397h32M96 398h32M384 398h32M96 399h32M384 399h32M96 400h32M384 400h32M96 401h32M384 401h32M96 402h32M384 402h32M96 403h32M384 403h32M96 404h32M384 404h32M96 405h32M384 405h32M96 406h32M384 406h32M96 407h32M384 407h32M96 408h32M384 408h32M96 409h32M384 409h32M96 410h32M384 410h32M96 411h32M384 411h32M96 412h32M384 412h32M96 413h32M384 413h32M96 414h32M384 414h32M96 415h32M384 415h32M128 416h64M320 416h64M128 417h64M320 417h64M128 418h64M320 418h64M128 419h64M320 419h64M128 420h64M320 420h64M128 421h64M320 421h64M128 422h64M320 422h64M128 423h64M320 423h64M128 424h64M320 424h64M128 425h64M320 425h64M128 426h64M320 426h64M128 427h64M320 427h64M128 428h64M320 428h64M128 429h64M320 429h64M128 430h64M320 430h64M128 431h64M320 431h64M128 432h64M320 432h64M128 433h64M320 433h64M128 434h64M320 434h64M128 435h64M320 435h64M128 436h64M320 436h64M128 437h64M320 437h64M128 438h64M320 438h64M128 439h64M320 439h64M128 440h64M320 440h64M128 441h64M320 441h64M128 442h64M320 442h64M128 443h64M320 443h64M128 444h64M320 444h64M128 445h64M320 445h64M128 446h64M320 446h64M128 447h64M320 447h64M192 448h128M192 449h128M192 450h128M192 451h128M192 452h128M192 453h128M192 454h128M192 455h128M192 456h128M192 457h128M192 458h128M192 459h128M192 460h128M192 461h128M192 462h128M192 463h128M192 464h128M192 465h128M192 466h128M192 467h128M192 468h128M192 469h128M192 470h128M192 471h128M192 472h128M192 473h128M192 474h128M192 475h128M192 476h128M192 477h128M192 478h128M192 479h128" />
<path stroke="#e6904e" d="M192 64h64M192 65h64M192 66h64M192 67h64M192 68h64M192 69h64M192 70h64M192 71h64M192 72h64M192 73h64M192 74h64M192 75h64M192 76h64M192 77h64M192 78h64M192 79h64M192 80h64M192 81h64M192 82h64M192 83h64M192 84h64M192 85h64M192 86h64M192 87h64M192 88h64M192 89h64M192 90h64M192 91h64M192 92h64M192 93h64M192 94h64M192 95h64M128 96h64M224 96h96M128 97h64M224 97h96M128 98h64M224 98h96M128 99h64M224 99h96M128 100h64M224 100h96M128 101h64M224 101h96M128 102h64M224 102h96M128 103h64M224 103h96M128 104h64M224 104h96M128 105h64M224 105h96M128 106h64M224 106h96M128 107h64M224 107h96M128 108h64M224 108h96M128 109h64M224 109h96M128 110h64M224 110h96M128 111h64M224 111h96M128 112h64M224 112h96M128 113h64M224 113h96M128 114h64M224 114h96M128 115h64M224 115h96M128 116h64M224 116h96M128 117h64M224 117h96M128 118h64M224 118h96M128 119h64M224 119h96M128 120h64M224 120h96M128 121h64M224 121h96M128 122h64M224 122h96M128 123h64M224 123h96M128 124h64M224 124h96M128 125h64M224 125h96M128 126h64M224 126h96M128 127h64M224 127h96M128 128h32M224 128h128M128 129h32M224 129h128M128 130h32M224 130h128M128 131h32M224 131h128M128 132h32M224 132h128M128 133h32M224 133h128M128 134h32M224 134h128M128 135h32M224 135h128M128 136h32M224 136h128M128 137h32M224 137h128M128 138h32M224 138h128M128 139h32M224 139h128M128 140h32M224 140h128M128 141h32M224 141h128M128 142h32M224 142h128M128 143h32M224 143h128M128 144h32M224 144h128M128 145h32M224 145h128M128 146h32M224 146h128M128 147h32M224 147h128M128 148h32M224 148h128M128 149h32M224 149h128M128 150h32M224 150h128M128 151h32M224 151h128M128 152h32M224 152h128M128 153h32M224 153h128M128 154h32M224 154h128M128 155h32M224 155h128M128 156h32M224 156h128M128 157h32M224 157h128M128 158h32M224 158h128M128 159h32M224 159h128M96 160h32M192 160h128M96 161h32M192 161h128M96 162h32M192 162h128M96 163h32M192 163h128M96 164h32M192 164h128M96 165h32M192 165h128M96 166h32M192 166h128M96 167h32M192 167h128M96 168h32M192 168h128M96 169h32M192 169h128M96 170h32M192 170h128M96 171h32M192 171h128M96 172h32M192 172h128M96 173h32M192 173h128M96 174h32M192 174h128M96 175h32M192 175h128M96 176h32M192 176h128M96 177h32M192 177h128M96 178h32M192 178h128M96 179h32M192 179h128M96 180h32M192 180h128M96 181h32M192 181h128M96 182h32M192 182h128M96 183h32M192 183h128M96 184h32M192 184h128M96 185h32M192 185h128M96 186h32M192 186h128M96 187h32M192 187h128M96 188h32M192 188h128M96 189h32M192 189h128M96 190h32M192 190h128M96 191h32M192 191h128M96 192h32M160 192h64M288 192h32M96 193h32M160 193h64M288 193h32M96 194h32M160 194h64M288 194h32M96 195h32M160 195h64M288 195h32M96 196h32M160 196h64M288 196h32M96 197h32M160 197h64M288 197h32M96 198h32M160 198h64M288 198h32M96 199h32M160 199h64M288 199h32M96 200h32M160 200h64M288 200h32M96 201h32M160 201h64M288 201h32M96 202h32M160 202h64M288 202h32M96 203h32M160 203h64M288 203h32M96 204h32M160 204h64M288 204h32M96 205h32M160 205h64M288 205h32M96 206h32M160 206h64M288 206h32M96 207h32M160 207h64M288 207h32M96 208h32M160 208h64M288 208h32M96 209h32M160 209h64M288 209h32M96 210h32M160 210h64M288 210h32M96 211h32M160 211h64M288 211h32M96 212h32M160 212h64M288 212h32M96 213h32M160 213h64M288 213h32M96 214h32M160 214h64M288 214h32M96 215h32M160 215h64M288 215h32M96 216h32M160 216h64M288 216h32M96 217h32M160 217h64M288 217h32M96 218h32M160 218h64M288 218h32M96 219h32M160 219h64M288 219h32M96 220h32M160 220h64M288 220h32M96 221h32M160 221h64M288 221h32M96 222h32M160 222h64M288 222h32M96 223h32M160 223h64M288 223h32M128 224h96M288 224h32M128 225h96M288 225h32M128 226h96M288 226h32M128 227h96M288 227h32M128 228h96M288 228h32M128 229h96M288 229h32M128 230h96M288 230h32M128 231h96M288 231h32M128 232h96M288 232h32M128 233h96M288 233h32M128 234h96M288 234h32M128 235h96M288 235h32M128 236h96M288 236h32M128 237h96M288 237h32M128 238h96M288 238h32M128 239h96M288 239h32M128 240h96M288 240h32M128 241h96M288 241h32M128 242h96M288 242h32M128 243h96M288 243h32M128 244h96M288 244h32M128 245h96M288 245h32M128 246h96M288 246h32M128 247h96M288 247h32M128 248h96M288 248h32M128 249h96M288 249h32M128 250h96M288 250h32M128 251h96M288 251h32M128 252h96M288 252h32M128 253h96M288 253h32M128 254h96M288 254h32M128 255h96M288 255h32M160 256h96M160 257h96M160 258h96M160 259h96M160 260h96M160 261h96M160 262h96M160 263h96M160 264h96M160 265h96M160 266h96M160 267h96M160 268h96M160 269h96M160 270h96M160 271h96M160 272h96M160 273h96M160 274h96M160 275h96M160 276h96M160 277h96M160 278h96M160 279h96M160 280h96M160 281h96M160 282h96M160 283h96M160 284h96M160 285h96M160 286h96M160 287h96" />
<path stroke="#cd683d" d="M256 64h64M256 65h64M256 66h64M256 67h64M256 68h64M256 69h64M256 70h64M256 71h64M256 72h64M256 73h64M256 74h64M256 75h64M256 76h64M256 77h64M256 78h64M256 79h64M256 80h64M256 81h64M256 82h64M256 83h64M256 84h64M256 85h64M256 86h64M256 87h64M256 88h64M256 89h64M256 90h64M256 91h64M256 92h64M256 93h64M256 94h64M256 95h64M320 96h64M320 97h64M320 98h64M320 99h64M320 100h64M320 101h64M320 102h64M320 103h64M320 104h64M320 105h64M320 106h64M320 107h64M320 108h64M320 109h64M320 110h64M320 111h64M320 112h64M320 113h64M320 114h64M320 115h64M320 116h64M320 117h64M320 118h64M320 119h64M320 120h64M320 121h64M320 122h64M320 123h64M320 124h64M320 125h64M320 126h64M320 127h64M96 128h32M352 128h64M96 129h32M352 129h64M96 130h32M352 130h64M96 131h32M352 131h64M96 132h32M352 132h64M96 133h32M352 133h64M96 134h32M352 134h64M96 135h32M352 135h64M96 136h32M352 136h64M96 137h32M352 137h64M96 138h32M352 138h64M96 139h32M352 139h64M96 140h32M352 140h64M96 141h32M352 141h64M96 142h32M352 142h64M96 143h32M352 143h64M96 144h32M352 144h64M96 145h32M352 145h64M96 146h32M352 146h64M96 147h32M352 147h64M96 148h32M352 148h64M96 149h32M352 149h64M96 150h32M352 150h64M96 151h32M352 151h64M96 152h32M352 152h64M96 153h32M352 153h64M96 154h32M352 154h64M96 155h32M352 155h64M96 156h32M352 156h64M96 157h32M352 157h64M96 158h32M352 158h64M96 159h32M352 159h64M384 160h32M384 161h32M384 162h32M384 163h32M384 164h32M384 165h32M384 166h32M384 167h32M384 168h32M384 169h32M384 170h32M384 171h32M384 172h32M384 173h32M384 174h32M384 175h32M384 176h32M384 177h32M384 178h32M384 179h32M384 180h32M384 181h32M384 182h32M384 183h32M384 184h32M384 185h32M384 186h32M384 187h32M384 188h32M384 189h32M384 190h32M384 191h32M64 192h32M384 192h32M64 193h32M384 193h32M64 194h32M384 194h32M64 195h32M384 195h32M64 196h32M384 196h32M64 197h32M384 197h32M64 198h32M384 198h32M64 199h32M384 199h32M64 200h32M384 200h32M64 201h32M384 201h32M64 202h32M384 202h32M64 203h32M384 203h32M64 204h32M384 204h32M64 205h32M384 205h32M64 206h32M384 206h32M64 207h32M384 207h32M64 208h32M384 208h32M64 209h32M384 209h32M64 210h32M384 210h32M64 211h32M384 211h32M64 212h32M384 212h32M64 213h32M384 213h32M64 214h32M384 214h32M64 215h32M384 215h32M64 216h32M384 216h32M64 217h32M384 217h32M64 218h32M384 218h32M64 219h32M384 219h32M64 220h32M384 220h32M64 221h32M384 221h32M64 222h32M384 222h32M64 223h32M384 223h32M64 224h64M320 224h96M64 225h64M320 225h96M64 226h64M320 226h96M64 227h64M320 227h96M64 228h64M320 228h96M64 229h64M320 229h96M64 230h64M320 230h96M64 231h64M320 231h96M64 232h64M320 232h96M64 233h64M320 233h96M64 234h64M320 234h96M64 235h64M320 235h96M64 236h64M320 236h96M64 237h64M320 237h96M64 238h64M320 238h96M64 239h64M320 239h96M64 240h64M320 240h96M64 241h64M320 241h96M64 242h64M320 242h96M64 243h64M320 243h96M64 244h64M320 244h96M64 245h64M320 245h96M64 246h64M320 246h96M64 247h64M320 247h96M64 248h64M320 248h96M64 249h64M320 249h96M64 250h64M320 250h96M64 251h64M320 251h96M64 252h64M320 252h96M64 253h64M320 253h96M64 254h64M320 254h96M64 255h64M320 255h96M64 256h96M256 256h128M64 257h96M256 257h128M64 258h96M256 258h128M64 259h96M256 259h128M64 260h96M256 260h128M64 261h96M256 261h128M64 262h96M256 262h128M64 263h96M256 263h128M64 264h96M256 264h128M64 265h96M256 265h128M64 266h96M256 266h128M64 267h96M256 267h128M64 268h96M256 268h128M64 269h96M256 269h128M64 270h96M256 270h128M64 271h96M256 271h128M64 272h96M256 272h128M64 273h96M256 273h128M64 274h96M256 274h128M64 275h96M256 275h128M64 276h96M256 276h128M64 277h96M256 277h128M64 278h96M256 278h128M64 279h96M256 279h128M64 280h96M256 280h128M64 281h96M256 281h128M64 282h96M256 282h128M64 283h96M256 283h128M64 284h96M256 284h128M64 285h96M256 285h128M64 286h96M256 286h128M64 287h96M256 287h128M64 288h192M320 288h64M64 289h192M320 289h64M64 290h192M320 290h64M64 291h192M320 291h64M64 292h192M320 292h64M64 293h192M320 293h64M64 294h192M320 294h64M64 295h192M320 295h64M64 296h192M320 296h64M64 297h192M320 297h64M64 298h192M320 298h64M64 299h192M320 299h64M64 300h192M320 300h64M64 301h192M320 301h64M64 302h192M320 302h64M64 303h192M320 303h64M64 304h192M320 304h64M64 305h192M320 305h64M64 306h192M320 306h64M64 307h192M320 307h64M64 308h192M320 308h64M64 309h192M320 309h64M64 310h192M320 310h64M64 311h192M320 311h64M64 312h192M320 312h64M64 313h192M320 313h64M64 314h192M320 314h64M64 315h192M320 315h64M64 316h192M320 316h64M64 317h192M320 317h64M64 318h192M320 318h64M64 319h192M320 319h64M96 320h160M320 320h32M96 321h160M320 321h32M96 322h160M320 322h32M96 323h160M320 323h32M96 324h160M320 324h32M96 325h160M320 325h32M96 326h160M320 326h32M96 327h160M320 327h32M96 328h160M320 328h32M96 329h160M320 329h32M96 330h160M320 330h32M96 331h160M320 331h32M96 332h160M320 332h32M96 333h160M320 333h32M96 334h160M320 334h32M96 335h160M320 335h32M96 336h160M320 336h32M96 337h160M320 337h32M96 338h160M320 338h32M96 339h160M320 339h32M96 340h160M320 340h32M96 341h160M320 341h32M96 342h160M320 342h32M96 343h160M320 343h32M96 344h160M320 344h32M96 345h160M320 345h32M96 346h160M320 346h32M96 347h160M320 347h32M96 348h160M320 348h32M96 349h160M320 349h32M96 350h160M320 350h32M96 351h160M320 351h32M96 352h224M96 353h224M96 354h224M96 355h224M96 356h224M96 357h224M96 358h224M96 359h224M96 360h224M96 361h224M96 362h224M96 363h224M96 364h224M96 365h224M96 366h224M96 367h224M96 368h224M96 369h224M96 370h224M96 371h224M96 372h224M96 373h224M96 374h224M96 375h224M96 376h224M96 377h224M96 378h224M96 379h224M96 380h224M96 381h224M96 382h224M96 383h224M128 384h128M128 385h128M128 386h128M128 387h128M128 388h128M128 389h128M128 390h128M128 391h128M128 392h128M128 393h128M128 394h128M128 395h128M128 396h128M128 397h128M128 398h128M128 399h128M128 400h128M128 401h128M128 402h128M128 403h128M128 404h128M128 405h128M128 406h128M128 407h128M128 408h128M128 409h128M128 410h128M128 411h128M128 412h128M128 413h128M128 414h128M128 415h128" />
<path stroke="#fbb954" d="M192 96h32M192 97h32M192 98h32M192 99h32M192 100h32M192 101h32M192 102h32M192 103h32M192 104h32M192 105h32M192 106h32M192 107h32M192 108h32M192 109h32M192 110h32M192 111h32M192 112h32M192 113h32M192 114h32M192 115h32M192 116h32M192 117h32M192 118h32M192 119h32M192 120h32M192 121h32M192 122h32M192 123h32M192 124h32M192 125h32M192 126h32M192 127h32M160 128h64M160 129h64M160 130h64M160 131h64M160 132h64M160 133h64M160 134h64M160 135h64M160 136h64M160 137h64M160 138h64M160 139h64M160 140h64M160 141h64M160 142h64M160 143h64M160 144h64M160 145h64M160 146h64M160 147h64M160 148h64M160 149h64M160 150h64M160 151h64M160 152h64M160 153h64M160 154h64M160 155h64M160 156h64M160 157h64M160 158h64M160 159h64M128 160h64M128 161h64M128 162h64M128 163h64M128 164h64M128 165h64M128 166h64M128 167h64M128 168h64M128 169h64M128 170h64M128 171h64M128 172h64M128 173h64M128 174h64M128 175h64M128 176h64M128 177h64M128 178h64M128 179h64M128 180h64M128 181h64M128 182h64M128 183h64M128 184h64M128 185h64M128 186h64M128 187h64M128 188h64M128 189h64M128 190h64M128 191h64M128 192h32M128 193h32M128 194h32M128 195h32M128 196h32M128 197h32M128 198h32M128 199h32M128 200h32M128 201h32M128 202h32M128 203h32M128 204h32M128 205h32M128 206h32M128 207h32M128 208h32M128 209h32M128 210h32M128 211h32M128 212h32M128 213h32M128 214h32M128 215h32M128 216h32M128 217h32M128 218h32M128 219h32M128 220h32M128 221h32M128 222h32M128 223h32" />
<path stroke="#9e4539" d="M320 160h64M320 161h64M320 162h64M320 163h64M320 164h64M320 165h64M320 166h64M320 167h64M320 168h64M320 169h64M320 170h64M320 171h64M320 172h64M320 173h64M320 174h64M320 175h64M320 176h64M320 177h64M320 178h64M320 179h64M320 180h64M320 181h64M320 182h64M320 183h64M320 184h64M320 185h64M320 186h64M320 187h64M320 188h64M320 189h64M320 190h64M320 191h64M256 192h32M320 192h32M416 192h32M256 193h32M320 193h32M416 193h32M256 194h32M320 194h32M416 194h32M256 195h32M320 195h32M416 195h32M256 196h32M320 196h32M416 196h32M256 197h32M320 197h32M416 197h32M256 198h32M320 198h32M416 198h32M256 199h32M320 199h32M416 199h32M256 200h32M320 200h32M416 200h32M256 201h32M320 201h32M416 201h32M256 202h32M320 202h32M416 202h32M256 203h32M320 203h32M416 203h32M256 204h32M320 204h32M416 204h32M256 205h32M320 205h32M416 205h32M256 206h32M320 206h32M416 206h32M256 207h32M320 207h32M416 207h32M256 208h32M320 208h32M416 208h32M256 209h32M320 209h32M416 209h32M256 210h32M320 210h32M416 210h32M256 211h32M320 211h32M416 211h32M256 212h32M320 212h32M416 212h32M256 213h32M320 213h32M416 213h32M256 214h32M320 214h32M416 214h32M256 215h32M320 215h32M416 215h32M256 216h32M320 216h32M416 216h32M256 217h32M320 217h32M416 217h32M256 218h32M320 218h32M416 218h32M256 219h32M320 219h32M416 219h32M256 220h32M320 220h32M416 220h32M256 221h32M320 221h32M416 221h32M256 222h32M320 222h32M416 222h32M256 223h32M320 223h32M416 223h32M224 224h64M416 224h32M224 225h64M416 225h32M224 226h64M416 226h32M224 227h64M416 227h32M224 228h64M416 228h32M224 229h64M416 229h32M224 230h64M416 230h32M224 231h64M416 231h32M224 232h64M416 232h32M224 233h64M416 233h32M224 234h64M416 234h32M224 235h64M416 235h32M224 236h64M416 236h32M224 237h64M416 237h32M224 238h64M416 238h32M224 239h64M416 239h32M224 240h64M416 240h32M224 241h64M416 241h32M224 242h64M416 242h32M224 243h64M416 243h32M224 244h64M416 244h32M224 245h64M416 245h32M224 246h64M416 246h32M224 247h64M416 247h32M224 248h64M416 248h32M224 249h64M416 249h32M224 250h64M416 250h32M224 251h64M416 251h32M224 252h64M416 252h32M224 253h64M416 253h32M224 254h64M416 254h32M224 255h64M416 255h32M384 256h64M384 257h64M384 258h64M384 259h64M384 260h64M384 261h64M384 262h64M384 263h64M384 264h64M384 265h64M384 266h64M384 267h64M384 268h64M384 269h64M384 270h64M384 271h64M384 272h64M384 273h64M384 274h64M384 275h64M384 276h64M384 277h64M384 278h64M384 279h64M384 280h64M384 281h64M384 282h64M384 283h64M384 284h64M384 285h64M384 286h64M384 287h64M256 288h32M384 288h64M256 289h32M384 289h64M256 290h32M384 290h64M256 291h32M384 291h64M256 292h32M384 292h64M256 293h32M384 293h64M256 294h32M384 294h64M256 295h32M384 295h64M256 296h32M384 296h64M256 297h32M384 297h64M256 298h32M384 298h64M256 299h32M384 299h64M256 300h32M384 300h64M256 301h32M384 301h64M256 302h32M384 302h64M256 303h32M384 303h64M256 304h32M384 304h64M256 305h32M384 305h64M256 306h32M384 306h64M256 307h32M384 307h64M256 308h32M384 308h64M256 309h32M384 309h64M256 310h32M384 310h64M256 311h32M384 311h64M256 312h32M384 312h64M256 313h32M384 313h64M256 314h32M384 314h64M256 315h32M384 315h64M256 316h32M384 316h64M256 317h32M384 317h64M256 318h32M384 318h64M256 319h32M384 319h64M256 320h64M352 320h64M256 321h64M352 321h64M256 322h64M352 322h64M256 323h64M352 323h64M256 324h64M352 324h64M256 325h64M352 325h64M256 326h64M352 326h64M256 327h64M352 327h64M256 328h64M352 328h64M256 329h64M352 329h64M256 330h64M352 330h64M256 331h64M352 331h64M256 332h64M352 332h64M256 333h64M352 333h64M256 334h64M352 334h64M256 335h64M352 335h64M256 336h64M352 336h64M256 337h64M352 337h64M256 338h64M352 338h64M256 339h64M352 339h64M256 340h64M352 340h64M256 341h64M352 341h64M256 342h64M352 342h64M256 343h64M352 343h64M256 344h64M352 344h64M256 345h64M352 345h64M256 346h64M352 346h64M256 347h64M352 347h64M256 348h64M352 348h64M256 349h64M352 349h64M256 350h64M352 350h64M256 351h64M352 351h64M320 352h96M320 353h96M320 354h96M320 355h96M320 356h96M320 357h96M320 358h96M320 359h96M320 360h96M320 361h96M320 362h96M320 363h96M320 364h96M320 365h96M320 366h96M320 367h96M320 368h96M320 369h96M320 370h96M320 371h96M320 372h96M320 373h96M320 374h96M320 375h96M320 376h96M320 377h96M320 378h96M320 379h96M320 380h96M320 381h96M320 382h96M320 383h96M256 384h128M256 385h128M256 386h128M256 387h128M256 388h128M256 389h128M256 390h128M256 391h128M256 392h128M256 393h128M256 394h128M256 395h128M256 396h128M256 397h128M256 398h128M256 399h128M256 400h128M256 401h128M256 402h128M256 403h128M256 404h128M256 405h128M256 406h128M256 407h128M256 408h128M256 409h128M256 410h128M256 411h128M256 412h128M256 413h128M256 414h128M256 415h128M192 416h128M192 417h128M192 418h128M192 419h128M192 420h128M192 421h128M192 422h128M192 423h128M192 424h128M192 425h128M192 426h128M192 427h128M192 428h128M192 429h128M192 430h128M192 431h128M192 432h128M192 433h128M192 434h128M192 435h128M192 436h128M192 437h128M192 438h128M192 439h128M192 440h128M192 441h128M192 442h128M192 443h128M192 444h128M192 445h128M192 446h128M192 447h128" />
</svg>